<svg xmlns="http://www.w3.org/2000/svg" version="1.1" xmlns:xlink="http://www.w3.org/1999/xlink" width="800px" height="800px"><svg width="800px" height="800px" viewBox="0 0 36 36" xmlns="http://www.w3.org/2000/svg" aria-hidden="true" role="img" class="iconify iconify--twemoji" preserveAspectRatio="xMidYMid meet">
  <path d="M 2.031 8.102 C 0.031 8.102 0.031 10.102 0.031 10.102 L 0.031 31.102 C 0.031 31.102 0.031 33.102 2.031 33.102 L 34.031 33.102 C 36.031 33.102 36.031 31.102 36.031 31.102 L 36.031 10.102 C 36.031 10.102 36.031 8.102 34.031 8.102 L 2.031 8.102 Z" fill="#5C913B"></path>
  <path d="M 2.031 3.102 C 0.031 3.102 0.031 5.102 0.031 5.102 L 0.031 25.102 C 0.031 25.102 0.031 27.102 2.031 27.102 L 34.031 27.102 C 36.031 27.102 36.031 25.102 36.031 25.102 L 36.031 5.102 C 36.031 5.102 36.031 3.102 34.031 3.102 L 2.031 3.102 Z" fill="#A7D28B"></path>
  <circle cx="25.031" cy="15.102" r="6.5" fill="#77B255"></circle>
  <path d="M 33.031 25.602 L 3.031 25.602 C 2.204 25.602 1.531 24.929 1.531 24.102 L 1.531 6.102 C 1.531 5.275 2.204 4.602 3.031 4.602 L 33.031 4.602 C 33.858 4.602 34.531 5.275 34.531 6.102 L 34.531 24.102 C 34.531 24.929 33.858 25.602 33.031 25.602 Z M 3.031 5.602 C 2.755 5.602 2.531 5.826 2.531 6.102 L 2.531 24.102 C 2.531 24.377 2.756 24.602 3.031 24.602 L 33.031 24.602 C 33.306 24.602 33.531 24.377 33.531 24.102 L 33.531 6.102 C 33.531 5.826 33.307 5.602 33.031 5.602 L 3.031 5.602 Z" fill="#5C913B"></path>
  <path d="M 14.031 3.102 L 22.031 3.102 L 22.031 27.164 L 14.031 27.164 L 14.031 3.102 Z" fill="#FFE8B6"></path>
  <path d="M 14.031 27.102 L 22.031 27.102 L 22.031 33.102 L 14.031 33.102 L 14.031 27.102 Z" fill="#FFAC33"></path>
  <path d="M 11.841 17.125 C 11.841 14.146 6.348 14.34 6.348 12.541 C 6.348 11.67 7.181 11.245 8.147 11.245 C 9.772 11.245 10.061 12.289 10.797 12.289 C 11.318 12.289 11.569 11.961 11.569 11.593 C 11.569 10.737 10.273 10.091 9.03 9.867 L 9.03 9.042 C 9.03 8.324 8.253 7.876 7.632 8.235 C 7.343 8.401 7.166 8.709 7.166 9.042 L 7.166 9.895 C 5.812 10.205 4.645 11.145 4.645 12.676 C 4.645 15.538 10.138 15.422 10.138 17.434 C 10.138 18.129 9.384 18.825 8.146 18.825 C 6.289 18.825 5.67 17.568 4.917 17.568 C 4.549 17.568 4.221 17.877 4.221 18.343 C 4.221 19.084 5.461 19.974 7.168 20.224 L 7.167 20.228 L 7.167 21.162 C 7.2 21.879 7.998 22.292 8.602 21.904 C 8.857 21.741 9.017 21.464 9.031 21.162 L 9.031 20.228 C 9.031 20.218 9.026 20.209 9.025 20.2 C 10.56 19.913 11.841 18.914 11.841 17.125 Z" fill="#5C913B"></path>
</svg><style>@media (prefers-color-scheme: light) { :root { filter: none; } }
@media (prefers-color-scheme: dark) { :root { filter: none; } }
</style></svg>